<?xml version="1.0" standalone="no"?>
<!DOCTYPE svg PUBLIC "-//W3C//DTD SVG 20010904//EN"
 "http://www.w3.org/TR/2001/REC-SVG-20010904/DTD/svg10.dtd">
<svg version="1.0" xmlns="http://www.w3.org/2000/svg"
 width="320.000000pt" height="320.000000pt" viewBox="0 0 320.000000 320.000000"
 preserveAspectRatio="xMidYMid meet">
<metadata>
Created by potrace 1.11, written by Peter Selinger 2001-2013
</metadata>
<g transform="translate(0.000000,320.000000) scale(0.100000,-0.100000)"
fill="#000000" stroke="none">
<path d="M1427 3189 c-591 -68 -1097 -453 -1312 -998 -139 -353 -150 -737 -29
-1101 229 -691 923 -1148 1646 -1082 644 58 1182 480 1382 1084 112 337 112
680 0 1018 -147 441 -489 803 -923 975 -238 94 -520 133 -764 104z m478 -108
c537 -124 945 -484 1123 -992 63 -177 77 -272 77 -499 -1 -173 -4 -220 -23
-303 -90 -407 -312 -734 -653 -963 -445 -298 -1032 -334 -1512 -93 -155 78
-269 161 -397 289 -259 259 -403 561 -441 927 -63 616 272 1222 831 1503 146
74 285 118 455 146 121 20 424 11 540 -15z"/>
<path d="M1410 3013 c-19 -2 -74 -13 -123 -24 -793 -175 -1285 -964 -1091
-1749 62 -249 180 -464 357 -647 198 -207 429 -339 712 -410 102 -25 125 -27
320 -28 168 0 227 4 294 19 576 126 995 546 1123 1124 31 140 31 434 0 574
-85 385 -297 698 -617 910 -109 72 -161 99 -279 145 -164 64 -278 84 -481 88
-99 2 -196 1 -215 -2z m725 -258 c66 -8 123 -15 128 -15 4 0 7 -122 7 -271 l0
-271 -127 9 c-165 10 -908 10 -1080 0 l-133 -8 0 269 0 270 98 12 c54 6 158
16 232 20 195 12 731 3 875 -15z m-15 -606 c252 -17 437 -50 456 -81 45 -73
-486 -127 -1126 -115 -513 10 -830 51 -830 108 0 26 148 60 350 80 289 28 812
32 1150 8z m-825 -364 c89 -21 461 -20 569 1 95 20 319 14 404 -9 103 -29 176
-89 203 -165 7 -21 18 -32 30 -32 16 0 19 -8 19 -50 0 -42 -3 -50 -18 -50 -13
0 -23 -12 -31 -42 -33 -110 -97 -185 -197 -230 -68 -31 -194 -31 -278 0 -192
70 -376 265 -376 399 l0 43 -39 0 -38 0 -6 -50 c-9 -74 -51 -145 -142 -235
-245 -246 -567 -241 -686 10 -16 33 -29 68 -29 78 0 11 -9 21 -20 24 -17 4
-20 14 -20 54 0 42 3 49 20 49 13 0 20 7 20 18 0 27 50 97 89 126 38 28 107
54 179 66 81 13 282 11 347 -5z m62 -869 c54 -26 99 -56 114 -75 22 -28 27
-30 57 -22 21 7 43 6 64 -1 25 -9 32 -8 40 6 18 32 54 59 132 97 90 44 115 47
140 20 10 -11 27 -21 39 -23 31 -5 56 -47 69 -116 20 -108 -16 -232 -69 -240
-12 -2 -29 -12 -39 -23 -25 -27 -50 -24 -140 20 -78 38 -114 65 -132 97 -8 14
-14 15 -44 5 -26 -8 -43 -9 -63 -1 -26 10 -31 8 -53 -20 -27 -35 -188 -120
-226 -120 -14 0 -31 9 -38 19 -8 10 -24 21 -38 23 -46 6 -65 59 -65 178 0 119
19 172 65 178 14 2 30 13 38 23 20 28 49 23 149 -25z"/>
</g>
</svg>
