<?xml version="1.0" standalone="no"?>
<!DOCTYPE svg PUBLIC "-//W3C//DTD SVG 20010904//EN"
 "http://www.w3.org/TR/2001/REC-SVG-20010904/DTD/svg10.dtd">
<svg version="1.0" xmlns="http://www.w3.org/2000/svg"
 width="320.000000pt" height="320.000000pt" viewBox="0 0 320.000000 320.000000"
 preserveAspectRatio="xMidYMid meet">
<metadata>
Created by potrace 1.11, written by Peter Selinger 2001-2013
</metadata>
<g transform="translate(0.000000,320.000000) scale(0.100000,-0.100000)"
fill="#000000" stroke="none">
<path d="M1435 3193 c-25 -3 -89 -15 -215 -39 -93 -18 -281 -92 -394 -155
-220 -122 -414 -300 -556 -510 -43 -63 -129 -223 -148 -274 -6 -16 -19 -54
-30 -82 -24 -62 -68 -245 -79 -323 -9 -69 -10 -325 -1 -405 6 -53 13 -94 32
-183 12 -54 67 -213 101 -286 151 -332 425 -613 750 -772 129 -62 292 -118
385 -130 25 -3 49 -8 53 -11 28 -17 356 -24 473 -10 110 12 298 62 394 104
172 75 300 151 416 248 301 252 493 583 561 965 18 100 24 368 11 470 -83 649
-555 1184 -1188 1349 -41 10 -95 22 -120 26 -25 4 -54 9 -65 12 -25 6 -340 11
-380 6z"/>
</g>
</svg>
